<?xml version="1.0" encoding="UTF-8"?>
<svg width="151px" height="125px" viewBox="0 0 151 125" version="1.1" xmlns="http://www.w3.org/2000/svg" xmlns:xlink="http://www.w3.org/1999/xlink">
    <!-- Generator: Sketch 44.1 (41455) - http://www.bohemiancoding.com/sketch -->
    <title>LinkedIn</title>
    <desc>Created with Sketch.</desc>
    <defs></defs>
    <g id="Page-1" stroke="none" stroke-width="1" fill="none" fill-rule="evenodd">
        <g id="LinkedIn" stroke="#FFFFFF">
            <circle id="Oval" stroke-width="2" fill="#4990E2" cx="76" cy="66" r="35"></circle>
            <g id="linkedin" transform="translate(66.000000, 55.000000)" stroke-width="0.6" fill="#FFFFFF" fill-rule="nonzero">
                <path d="M5.42141522,21.9512042 L0.330186851,21.9512042 L0.330186851,6.98047059 L5.42141522,6.98047059 L5.42141522,21.9512042 Z M1.26414187,20.9727751 L4.48738754,20.9727751 L4.48738754,7.95897578 L1.26414187,7.95897578 L1.26414187,20.9727751 Z M2.87670934,6.04604152 C1.29080969,6.04604152 0,4.69521107 0,3.03523875 C0,1.37526644 1.29080969,0.0254256055 2.87670934,0.0254256055 C4.46217301,0.0254256055 5.75160208,1.37572318 5.75160208,3.03523875 C5.75160208,4.69574394 4.46217301,6.04604152 2.87670934,6.04604152 Z M2.87670934,1.0039308 C1.80541869,1.0039308 0.933955017,1.91537024 0.933955017,3.03523875 C0.933955017,4.15609689 1.80534602,5.06753633 2.87670934,5.06753633 C3.94705536,5.06753633 4.81757439,4.15556401 4.81757439,3.03523875 C4.81757439,1.91537024 3.94712803,1.0039308 2.87670934,1.0039308 Z M20.977692,21.9512042 L15.8934394,21.9512042 L15.8934394,14.6586228 C15.8934394,12.4761315 15.6403495,11.4374879 14.2005779,11.4374879 C12.7440208,11.4374879 12.1765848,12.3073633 12.1765848,14.5402491 L12.1765848,21.9512803 L7.09422145,21.9512803 L7.09422145,6.98047059 L12.0093841,6.98047059 L12.0093841,8.03966782 C12.7920519,7.26715571 13.9782976,6.63311419 15.529173,6.63311419 C20.3299619,6.63311419 20.9771834,10.2500969 20.9771834,13.7882145 L20.9771834,21.9512042 L20.977692,21.9512042 L20.977692,21.9512042 Z M16.8274671,20.9727751 L20.043737,20.9727751 L20.043737,13.7882907 C20.043737,9.97513495 19.288609,7.61161938 15.5296817,7.61161938 C13.6756505,7.61161938 12.4763979,8.68840138 12.0127266,9.61019377 L11.8814948,9.87145329 L11.0759377,9.87145329 L11.0759377,7.95950865 L8.02868512,7.95950865 L8.02868512,20.973308 L11.2430657,20.973308 L11.2430657,14.5403253 C11.2430657,13.4243391 11.2430657,10.4590588 14.2010865,10.4590588 C16.8279758,10.4590588 16.8279758,13.1909412 16.8279758,14.658699 L16.8279758,20.9728512 L16.8274671,20.9728512 L16.8274671,20.9727751 Z" id="Shape"></path>
            </g>
        </g>
    </g>
</svg>