<?xml version="1.0" encoding="UTF-8"?>
<svg width="222px" height="114px" viewBox="0 0 222 114" version="1.1" xmlns="http://www.w3.org/2000/svg" xmlns:xlink="http://www.w3.org/1999/xlink">
    <!-- Generator: Sketch 44.1 (41455) - http://www.bohemiancoding.com/sketch -->
    <title>Mail</title>
    <desc>Created with Sketch.</desc>
    <defs></defs>
    <g id="Page-1" stroke="none" stroke-width="1" fill="none" fill-rule="evenodd">
        <g id="Mail" stroke-width="2">
            <circle id="Oval" stroke="#FFFFFF" cx="115" cy="53" r="35"></circle>
            <circle id="Oval" stroke="#FFFFFF" cx="115" cy="53" r="35"></circle>
            <circle id="Oval" stroke="#FFFFFF" cx="115" cy="53" r="35"></circle>
            <circle id="Oval" stroke="#FFFFFF" cx="115" cy="53" r="35"></circle>
            <circle id="Oval" stroke="#FFFFFF" cx="115" cy="53" r="35"></circle>
            <circle id="Oval" stroke="#FFFFFF" fill="#E70E0E" cx="115" cy="53" r="35"></circle>
            <g id="mail" transform="translate(106.000000, 44.000000)" stroke-linecap="round" stroke-linejoin="round">
                <path d="M2,0 L18,0 C19.1,0 20,0.9 20,2 L20,14 C20,15.1 19.1,16 18,16 L2,16 C0.9,16 0,15.1 0,14 L0,2 C0,0.9 0.9,0 2,0 Z" id="Shape" stroke="#FFFDFD"></path>
                <polyline id="Shape" stroke="#FBFBFB" points="20 2 10 9 0 2"></polyline>
            </g>
        </g>
    </g>
</svg>